<?xml version="1.0" encoding="utf-8" standalone="no"?>
<!DOCTYPE svg PUBLIC "-//W3C//DTD SVG 1.1//EN" "http://www.w3.org/Graphics/SVG/1.1/DTD/svg11.dtd">
<svg width="3000px" height="3000px" version="1.1" xmlns="http://www.w3.org/2000/svg" xmlns:xlink="http://www.w3.org/1999/xlink">
<g id="bg">
<rect x="0" y="0" width="3000px" height="3000px" style="fill:rgb(255,255,255);"/>
</g>
<g id="ideograms">
<path d="M1500.000,245.000 A1255.000,1255.000 40.000 0,1 1978.592,2660.162 L1997.659,2706.383 A1305.000,1305.000 0.000 0,0 1500.000,195.000 Z" style="stroke-width:2.0;stroke:rgb(0,0,0);stroke-linecap:round;fill:rgb(247,92,2);" />
<text x="2856.9" y="1231.1" font-size="65.0px" font-family="CMUBright-Roman" style="text-anchor:middle;fill:rgb(0,0,0);" transform="rotate(438.8,2856.9,1231.1)" >MTA1</text>
<line x1='1545.2' y1='195.8' x2='1545.5' y2='187.8' style="stroke-width:2.0;stroke:rgb(115,115,115);stroke-linecap:round;fill:none;" />
<line x1='1595.4' y1='198.5' x2='1596.0' y2='190.5' style="stroke-width:2.0;stroke:rgb(115,115,115);stroke-linecap:round;fill:none;" />
<line x1='1645.5' y1='203.1' x2='1646.4' y2='195.2' style="stroke-width:2.0;stroke:rgb(115,115,115);stroke-linecap:round;fill:none;" />
<line x1='1695.3' y1='209.7' x2='1696.5' y2='201.8' style="stroke-width:2.0;stroke:rgb(115,115,115);stroke-linecap:round;fill:none;" />
<line x1='1744.9' y1='218.2' x2='1747.1' y2='206.4' style="stroke-width:3.0;stroke:rgb(82,82,82);stroke-linecap:round;fill:none;" />
<line x1='1794.0' y1='228.6' x2='1795.8' y2='220.8' style="stroke-width:2.0;stroke:rgb(115,115,115);stroke-linecap:round;fill:none;" />
<line x1='1842.8' y1='240.8' x2='1844.9' y2='233.1' style="stroke-width:2.0;stroke:rgb(115,115,115);stroke-linecap:round;fill:none;" />
<line x1='1891.0' y1='255.0' x2='1893.4' y2='247.3' style="stroke-width:2.0;stroke:rgb(115,115,115);stroke-linecap:round;fill:none;" />
<line x1='1938.7' y1='270.9' x2='1941.4' y2='263.4' style="stroke-width:2.0;stroke:rgb(115,115,115);stroke-linecap:round;fill:none;" />
<line x1='1985.7' y1='288.7' x2='1991.3' y2='274.8' style="stroke-width:3.0;stroke:rgb(0,0,0);stroke-linecap:round;fill:none;" />
<text x="2000.6" y="274.3" font-size="23.4px" font-family="CMUBright-Roman" style="text-anchor:start;fill:rgb(0,0,0);" transform="rotate(291.8,2000.6,274.3)" >100</text>
<line x1='2032.0' y1='308.3' x2='2035.2' y2='301.0' style="stroke-width:2.0;stroke:rgb(115,115,115);stroke-linecap:round;fill:none;" />
<line x1='2077.5' y1='329.7' x2='2081.0' y2='322.5' style="stroke-width:2.0;stroke:rgb(115,115,115);stroke-linecap:round;fill:none;" />
<line x1='2122.1' y1='352.8' x2='2125.9' y2='345.8' style="stroke-width:2.0;stroke:rgb(115,115,115);stroke-linecap:round;fill:none;" />
<line x1='2165.8' y1='377.6' x2='2169.9' y2='370.8' style="stroke-width:2.0;stroke:rgb(115,115,115);stroke-linecap:round;fill:none;" />
<line x1='2208.6' y1='404.1' x2='2215.1' y2='394.0' style="stroke-width:3.0;stroke:rgb(82,82,82);stroke-linecap:round;fill:none;" />
<line x1='2250.2' y1='432.2' x2='2254.8' y2='425.7' style="stroke-width:2.0;stroke:rgb(115,115,115);stroke-linecap:round;fill:none;" />
<line x1='2290.8' y1='461.9' x2='2295.6' y2='455.5' style="stroke-width:2.0;stroke:rgb(115,115,115);stroke-linecap:round;fill:none;" />
<line x1='2330.2' y1='493.1' x2='2335.3' y2='486.9' style="stroke-width:2.0;stroke:rgb(115,115,115);stroke-linecap:round;fill:none;" />
<line x1='2368.3' y1='525.8' x2='2373.7' y2='519.9' style="stroke-width:2.0;stroke:rgb(115,115,115);stroke-linecap:round;fill:none;" />
<line x1='2405.2' y1='560.0' x2='2415.6' y2='549.2' style="stroke-width:3.0;stroke:rgb(0,0,0);stroke-linecap:round;fill:none;" />
<text x="2424.5" y="552.2" font-size="23.4px" font-family="CMUBright-Roman" style="text-anchor:start;fill:rgb(0,0,0);" transform="rotate(313.9,2424.5,552.2)" >200</text>
<line x1='2440.7' y1='595.6' x2='2446.5' y2='590.0' style="stroke-width:2.0;stroke:rgb(115,115,115);stroke-linecap:round;fill:none;" />
<line x1='2474.9' y1='632.5' x2='2480.9' y2='627.1' style="stroke-width:2.0;stroke:rgb(115,115,115);stroke-linecap:round;fill:none;" />
<line x1='2507.6' y1='670.6' x2='2513.7' y2='665.6' style="stroke-width:2.0;stroke:rgb(115,115,115);stroke-linecap:round;fill:none;" />
<line x1='2538.8' y1='710.1' x2='2545.1' y2='705.2' style="stroke-width:2.0;stroke:rgb(115,115,115);stroke-linecap:round;fill:none;" />
<line x1='2568.4' y1='750.6' x2='2578.2' y2='743.8' style="stroke-width:3.0;stroke:rgb(82,82,82);stroke-linecap:round;fill:none;" />
<line x1='2596.5' y1='792.4' x2='2603.2' y2='788.0' style="stroke-width:2.0;stroke:rgb(115,115,115);stroke-linecap:round;fill:none;" />
<line x1='2622.9' y1='835.1' x2='2629.8' y2='831.0' style="stroke-width:2.0;stroke:rgb(115,115,115);stroke-linecap:round;fill:none;" />
<line x1='2647.7' y1='878.8' x2='2654.7' y2='875.0' style="stroke-width:2.0;stroke:rgb(115,115,115);stroke-linecap:round;fill:none;" />
<line x1='2670.8' y1='923.5' x2='2677.9' y2='920.0' style="stroke-width:2.0;stroke:rgb(115,115,115);stroke-linecap:round;fill:none;" />
<line x1='2692.1' y1='969.0' x2='2705.8' y2='962.9' style="stroke-width:3.0;stroke:rgb(0,0,0);stroke-linecap:round;fill:none;" />
<text x="2712.9" y="969.1" font-size="23.4px" font-family="CMUBright-Roman" style="text-anchor:start;fill:rgb(0,0,0);" transform="rotate(336.0,2712.9,969.1)" >300</text>
<line x1='2711.7' y1='1015.3' x2='2719.1' y2='1012.3' style="stroke-width:2.0;stroke:rgb(115,115,115);stroke-linecap:round;fill:none;" />
<line x1='2729.4' y1='1062.3' x2='2737.0' y2='1059.7' style="stroke-width:2.0;stroke:rgb(115,115,115);stroke-linecap:round;fill:none;" />
<line x1='2745.4' y1='1110.0' x2='2753.0' y2='1107.6' style="stroke-width:2.0;stroke:rgb(115,115,115);stroke-linecap:round;fill:none;" />
<line x1='2759.5' y1='1158.3' x2='2767.2' y2='1156.2' style="stroke-width:2.0;stroke:rgb(115,115,115);stroke-linecap:round;fill:none;" />
<line x1='2771.7' y1='1207.0' x2='2783.4' y2='1204.3' style="stroke-width:3.0;stroke:rgb(82,82,82);stroke-linecap:round;fill:none;" />
<line x1='2782.0' y1='1256.2' x2='2789.9' y2='1254.7' style="stroke-width:2.0;stroke:rgb(115,115,115);stroke-linecap:round;fill:none;" />
<line x1='2790.5' y1='1305.8' x2='2798.4' y2='1304.6' style="stroke-width:2.0;stroke:rgb(115,115,115);stroke-linecap:round;fill:none;" />
<line x1='2797.0' y1='1355.6' x2='2804.9' y2='1354.7' style="stroke-width:2.0;stroke:rgb(115,115,115);stroke-linecap:round;fill:none;" />
<line x1='2801.6' y1='1405.6' x2='2809.6' y2='1405.1' style="stroke-width:2.0;stroke:rgb(115,115,115);stroke-linecap:round;fill:none;" />
<line x1='2804.3' y1='1455.8' x2='2819.2' y2='1455.3' style="stroke-width:3.0;stroke:rgb(0,0,0);stroke-linecap:round;fill:none;" />
<text x="2823.5" y="1463.7" font-size="23.4px" font-family="CMUBright-Roman" style="text-anchor:start;fill:rgb(0,0,0);" transform="rotate(358.1,2823.5,1463.7)" >400</text>
<line x1='2805.0' y1='1506.1' x2='2813.0' y2='1506.1' style="stroke-width:2.0;stroke:rgb(115,115,115);stroke-linecap:round;fill:none;" />
<line x1='2803.8' y1='1556.4' x2='2811.8' y2='1556.7' style="stroke-width:2.0;stroke:rgb(115,115,115);stroke-linecap:round;fill:none;" />
<line x1='2800.6' y1='1606.5' x2='2808.6' y2='1607.2' style="stroke-width:2.0;stroke:rgb(115,115,115);stroke-linecap:round;fill:none;" />
<line x1='2795.6' y1='1656.5' x2='2803.5' y2='1657.5' style="stroke-width:2.0;stroke:rgb(115,115,115);stroke-linecap:round;fill:none;" />
<line x1='2788.6' y1='1706.3' x2='2800.4' y2='1708.2' style="stroke-width:3.0;stroke:rgb(82,82,82);stroke-linecap:round;fill:none;" />
<line x1='2779.7' y1='1755.8' x2='2787.5' y2='1757.3' style="stroke-width:2.0;stroke:rgb(115,115,115);stroke-linecap:round;fill:none;" />
<line x1='2768.9' y1='1804.9' x2='2776.7' y2='1806.7' style="stroke-width:2.0;stroke:rgb(115,115,115);stroke-linecap:round;fill:none;" />
<line x1='2756.2' y1='1853.5' x2='2763.9' y2='1855.7' style="stroke-width:2.0;stroke:rgb(115,115,115);stroke-linecap:round;fill:none;" />
<line x1='2741.7' y1='1901.6' x2='2749.3' y2='1904.1' style="stroke-width:2.0;stroke:rgb(115,115,115);stroke-linecap:round;fill:none;" />
<line x1='2725.3' y1='1949.1' x2='2739.4' y2='1954.3' style="stroke-width:3.0;stroke:rgb(0,0,0);stroke-linecap:round;fill:none;" />
<text x="2740.2" y="1963.7" font-size="23.4px" font-family="CMUBright-Roman" style="text-anchor:start;fill:rgb(0,0,0);" transform="rotate(20.1,2740.2,1963.7)" >500</text>
<line x1='2707.1' y1='1996.0' x2='2714.5' y2='1999.0' style="stroke-width:2.0;stroke:rgb(115,115,115);stroke-linecap:round;fill:none;" />
<line x1='2687.1' y1='2042.1' x2='2694.3' y2='2045.4' style="stroke-width:2.0;stroke:rgb(115,115,115);stroke-linecap:round;fill:none;" />
<line x1='2665.3' y1='2087.4' x2='2672.5' y2='2091.0' style="stroke-width:2.0;stroke:rgb(115,115,115);stroke-linecap:round;fill:none;" />
<line x1='2641.8' y1='2131.9' x2='2648.8' y2='2135.7' style="stroke-width:2.0;stroke:rgb(115,115,115);stroke-linecap:round;fill:none;" />
<line x1='2616.6' y1='2175.4' x2='2626.9' y2='2181.6' style="stroke-width:3.0;stroke:rgb(82,82,82);stroke-linecap:round;fill:none;" />
<line x1='2589.8' y1='2217.9' x2='2596.5' y2='2222.3' style="stroke-width:2.0;stroke:rgb(115,115,115);stroke-linecap:round;fill:none;" />
<line x1='2561.4' y1='2259.3' x2='2567.9' y2='2264.0' style="stroke-width:2.0;stroke:rgb(115,115,115);stroke-linecap:round;fill:none;" />
<line x1='2531.3' y1='2299.6' x2='2537.6' y2='2304.5' style="stroke-width:2.0;stroke:rgb(115,115,115);stroke-linecap:round;fill:none;" />
<line x1='2499.8' y1='2338.7' x2='2505.9' y2='2343.9' style="stroke-width:2.0;stroke:rgb(115,115,115);stroke-linecap:round;fill:none;" />
<line x1='2466.7' y1='2376.6' x2='2477.8' y2='2386.7' style="stroke-width:3.0;stroke:rgb(0,0,0);stroke-linecap:round;fill:none;" />
<text x="2475.1" y="2395.7" font-size="23.4px" font-family="CMUBright-Roman" style="text-anchor:start;fill:rgb(0,0,0);" transform="rotate(42.2,2475.1,2395.7)" >600</text>
<line x1='2432.2' y1='2413.2' x2='2438.0' y2='2418.8' style="stroke-width:2.0;stroke:rgb(115,115,115);stroke-linecap:round;fill:none;" />
<line x1='2396.4' y1='2448.4' x2='2401.9' y2='2454.2' style="stroke-width:2.0;stroke:rgb(115,115,115);stroke-linecap:round;fill:none;" />
<line x1='2359.2' y1='2482.2' x2='2364.5' y2='2488.3' style="stroke-width:2.0;stroke:rgb(115,115,115);stroke-linecap:round;fill:none;" />
<line x1='2320.7' y1='2514.6' x2='2325.8' y2='2520.8' style="stroke-width:2.0;stroke:rgb(115,115,115);stroke-linecap:round;fill:none;" />
<line x1='2281.1' y1='2545.5' x2='2288.2' y2='2555.1' style="stroke-width:3.0;stroke:rgb(82,82,82);stroke-linecap:round;fill:none;" />
<line x1='2240.2' y1='2574.8' x2='2244.7' y2='2581.4' style="stroke-width:2.0;stroke:rgb(115,115,115);stroke-linecap:round;fill:none;" />
<line x1='2198.3' y1='2602.5' x2='2202.6' y2='2609.2' style="stroke-width:2.0;stroke:rgb(115,115,115);stroke-linecap:round;fill:none;" />
<line x1='2155.3' y1='2628.5' x2='2159.3' y2='2635.5' style="stroke-width:2.0;stroke:rgb(115,115,115);stroke-linecap:round;fill:none;" />
<line x1='2111.3' y1='2652.9' x2='2115.1' y2='2660.0' style="stroke-width:2.0;stroke:rgb(115,115,115);stroke-linecap:round;fill:none;" />
<line x1='2066.5' y1='2675.6' x2='2073.0' y2='2689.1' style="stroke-width:3.0;stroke:rgb(0,0,0);stroke-linecap:round;fill:none;" />
<text x="2067.1" y="2696.4" font-size="23.4px" font-family="CMUBright-Roman" style="text-anchor:start;fill:rgb(0,0,0);" transform="rotate(64.3,2067.1,2696.4)" >700</text>
<line x1='2020.8' y1='2696.6' x2='2024.0' y2='2703.9' style="stroke-width:2.0;stroke:rgb(115,115,115);stroke-linecap:round;fill:none;" />
<path d="M1500.000,245.000 A1255.000,1255.000 40.000 0,1 1978.592,2660.162 L1997.659,2706.383 A1305.000,1305.000 0.000 0,0 1500.000,195.000 Z" style="stroke-width:2.0;stroke:rgb(0,0,0);stroke-linecap:round;fill:none;" />
<path d="M1960.446,2667.482 A1255.000,1255.000 40.000 0,1 250.498,1617.347 L200.717,1622.022 A1305.000,1305.000 0.000 0,0 1978.791,2713.995 Z" style="stroke-width:2.0;stroke:rgb(0,0,0);stroke-linecap:round;fill:rgb(251,255,0);" />
<text x="750.4" y="2720.5" font-size="65.0px" font-family="CMUBright-Roman" style="text-anchor:middle;fill:rgb(0,0,0);" transform="rotate(31.6,750.4,2720.5)" >HDAC1</text>
<line x1='1936.4' y1='2729.9' x2='1939.1' y2='2737.4' style="stroke-width:2.0;stroke:rgb(115,115,115);stroke-linecap:round;fill:none;" />
<line x1='1888.7' y1='2745.8' x2='1891.1' y2='2753.4' style="stroke-width:2.0;stroke:rgb(115,115,115);stroke-linecap:round;fill:none;" />
<line x1='1840.5' y1='2759.8' x2='1842.6' y2='2767.5' style="stroke-width:2.0;stroke:rgb(115,115,115);stroke-linecap:round;fill:none;" />
<line x1='1791.7' y1='2772.0' x2='1793.5' y2='2779.8' style="stroke-width:2.0;stroke:rgb(115,115,115);stroke-linecap:round;fill:none;" />
<line x1='1742.5' y1='2782.3' x2='1744.7' y2='2794.1' style="stroke-width:3.0;stroke:rgb(82,82,82);stroke-linecap:round;fill:none;" />
<line x1='1692.9' y1='2790.7' x2='1694.1' y2='2798.6' style="stroke-width:2.0;stroke:rgb(115,115,115);stroke-linecap:round;fill:none;" />
<line x1='1643.1' y1='2797.1' x2='1644.0' y2='2805.1' style="stroke-width:2.0;stroke:rgb(115,115,115);stroke-linecap:round;fill:none;" />
<line x1='1593.0' y1='2801.7' x2='1593.6' y2='2809.7' style="stroke-width:2.0;stroke:rgb(115,115,115);stroke-linecap:round;fill:none;" />
<line x1='1542.8' y1='2804.3' x2='1543.1' y2='2812.3' style="stroke-width:2.0;stroke:rgb(115,115,115);stroke-linecap:round;fill:none;" />
<line x1='1492.6' y1='2805.0' x2='1492.5' y2='2820.0' style="stroke-width:3.0;stroke:rgb(0,0,0);stroke-linecap:round;fill:none;" />
<text x="1501.0" y="2824.0" font-size="23.4px" font-family="CMUBright-Roman" style="text-anchor:end;fill:rgb(0,0,0);" transform="rotate(-89.7,1501.0,2824.0)" >100</text>
<line x1='1442.3' y1='2803.7' x2='1442.0' y2='2811.7' style="stroke-width:2.0;stroke:rgb(115,115,115);stroke-linecap:round;fill:none;" />
<line x1='1392.2' y1='2800.5' x2='1391.5' y2='2808.5' style="stroke-width:2.0;stroke:rgb(115,115,115);stroke-linecap:round;fill:none;" />
<line x1='1342.2' y1='2795.4' x2='1341.2' y2='2803.4' style="stroke-width:2.0;stroke:rgb(115,115,115);stroke-linecap:round;fill:none;" />
<line x1='1292.4' y1='2788.4' x2='1291.1' y2='2796.3' style="stroke-width:2.0;stroke:rgb(115,115,115);stroke-linecap:round;fill:none;" />
<line x1='1242.9' y1='2779.4' x2='1240.6' y2='2791.2' style="stroke-width:3.0;stroke:rgb(82,82,82);stroke-linecap:round;fill:none;" />
<line x1='1193.8' y1='2768.6' x2='1192.0' y2='2776.4' style="stroke-width:2.0;stroke:rgb(115,115,115);stroke-linecap:round;fill:none;" />
<line x1='1145.2' y1='2755.8' x2='1143.0' y2='2763.5' style="stroke-width:2.0;stroke:rgb(115,115,115);stroke-linecap:round;fill:none;" />
<line x1='1097.1' y1='2741.3' x2='1094.6' y2='2748.9' style="stroke-width:2.0;stroke:rgb(115,115,115);stroke-linecap:round;fill:none;" />
<line x1='1049.6' y1='2724.8' x2='1046.9' y2='2732.3' style="stroke-width:2.0;stroke:rgb(115,115,115);stroke-linecap:round;fill:none;" />
<line x1='1002.8' y1='2706.6' x2='997.1' y2='2720.4' style="stroke-width:3.0;stroke:rgb(0,0,0);stroke-linecap:round;fill:none;" />
<text x="1003.4" y="2727.3" font-size="23.4px" font-family="CMUBright-Roman" style="text-anchor:end;fill:rgb(0,0,0);" transform="rotate(-67.6,1003.4,2727.3)" >200</text>
<line x1='956.7' y1='2686.5' x2='953.4' y2='2693.8' style="stroke-width:2.0;stroke:rgb(115,115,115);stroke-linecap:round;fill:none;" />
<line x1='911.4' y1='2664.7' x2='907.8' y2='2671.9' style="stroke-width:2.0;stroke:rgb(115,115,115);stroke-linecap:round;fill:none;" />
<line x1='867.0' y1='2641.2' x2='863.1' y2='2648.2' style="stroke-width:2.0;stroke:rgb(115,115,115);stroke-linecap:round;fill:none;" />
<line x1='823.5' y1='2616.0' x2='819.4' y2='2622.8' style="stroke-width:2.0;stroke:rgb(115,115,115);stroke-linecap:round;fill:none;" />
<line x1='781.0' y1='2589.1' x2='774.4' y2='2599.1' style="stroke-width:3.0;stroke:rgb(82,82,82);stroke-linecap:round;fill:none;" />
<line x1='739.6' y1='2560.6' x2='735.0' y2='2567.1' style="stroke-width:2.0;stroke:rgb(115,115,115);stroke-linecap:round;fill:none;" />
<line x1='699.3' y1='2530.5' x2='694.4' y2='2536.8' style="stroke-width:2.0;stroke:rgb(115,115,115);stroke-linecap:round;fill:none;" />
<line x1='660.2' y1='2498.9' x2='655.1' y2='2505.0' style="stroke-width:2.0;stroke:rgb(115,115,115);stroke-linecap:round;fill:none;" />
<line x1='622.4' y1='2465.8' x2='617.0' y2='2471.8' style="stroke-width:2.0;stroke:rgb(115,115,115);stroke-linecap:round;fill:none;" />
<line x1='585.9' y1='2431.3' x2='575.3' y2='2442.0' style="stroke-width:3.0;stroke:rgb(0,0,0);stroke-linecap:round;fill:none;" />
<text x="578.6" y="2450.8" font-size="23.4px" font-family="CMUBright-Roman" style="text-anchor:end;fill:rgb(0,0,0);" transform="rotate(-45.5,578.6,2450.8)" >300</text>
<line x1='550.7' y1='2395.4' x2='544.8' y2='2400.9' style="stroke-width:2.0;stroke:rgb(115,115,115);stroke-linecap:round;fill:none;" />
<line x1='516.9' y1='2358.2' x2='510.9' y2='2363.5' style="stroke-width:2.0;stroke:rgb(115,115,115);stroke-linecap:round;fill:none;" />
<line x1='484.6' y1='2319.7' x2='478.3' y2='2324.7' style="stroke-width:2.0;stroke:rgb(115,115,115);stroke-linecap:round;fill:none;" />
<line x1='453.8' y1='2280.0' x2='447.3' y2='2284.8' style="stroke-width:2.0;stroke:rgb(115,115,115);stroke-linecap:round;fill:none;" />
<line x1='424.5' y1='2239.1' x2='414.6' y2='2245.9' style="stroke-width:3.0;stroke:rgb(82,82,82);stroke-linecap:round;fill:none;" />
<line x1='396.8' y1='2197.2' x2='390.1' y2='2201.4' style="stroke-width:2.0;stroke:rgb(115,115,115);stroke-linecap:round;fill:none;" />
<line x1='370.8' y1='2154.2' x2='363.9' y2='2158.2' style="stroke-width:2.0;stroke:rgb(115,115,115);stroke-linecap:round;fill:none;" />
<line x1='346.4' y1='2110.2' x2='339.4' y2='2113.9' style="stroke-width:2.0;stroke:rgb(115,115,115);stroke-linecap:round;fill:none;" />
<line x1='323.8' y1='2065.3' x2='316.6' y2='2068.8' style="stroke-width:2.0;stroke:rgb(115,115,115);stroke-linecap:round;fill:none;" />
<line x1='302.9' y1='2019.6' x2='289.1' y2='2025.6' style="stroke-width:3.0;stroke:rgb(0,0,0);stroke-linecap:round;fill:none;" />
<text x="288.9" y="2034.9" font-size="23.4px" font-family="CMUBright-Roman" style="text-anchor:end;fill:rgb(0,0,0);" transform="rotate(-23.5,288.9,2034.9)" >400</text>
<line x1='283.8' y1='1973.1' x2='276.3' y2='1976.0' style="stroke-width:2.0;stroke:rgb(115,115,115);stroke-linecap:round;fill:none;" />
<line x1='266.5' y1='1925.9' x2='258.9' y2='1928.5' style="stroke-width:2.0;stroke:rgb(115,115,115);stroke-linecap:round;fill:none;" />
<line x1='251.0' y1='1878.1' x2='243.3' y2='1880.4' style="stroke-width:2.0;stroke:rgb(115,115,115);stroke-linecap:round;fill:none;" />
<line x1='237.3' y1='1829.7' x2='229.6' y2='1831.7' style="stroke-width:2.0;stroke:rgb(115,115,115);stroke-linecap:round;fill:none;" />
<line x1='225.6' y1='1780.8' x2='213.9' y2='1783.4' style="stroke-width:3.0;stroke:rgb(82,82,82);stroke-linecap:round;fill:none;" />
<line x1='215.7' y1='1731.6' x2='207.8' y2='1733.0' style="stroke-width:2.0;stroke:rgb(115,115,115);stroke-linecap:round;fill:none;" />
<line x1='207.7' y1='1681.9' x2='199.8' y2='1683.0' style="stroke-width:2.0;stroke:rgb(115,115,115);stroke-linecap:round;fill:none;" />
<line x1='201.7' y1='1632.0' x2='193.7' y2='1632.8' style="stroke-width:2.0;stroke:rgb(115,115,115);stroke-linecap:round;fill:none;" />
<path d="M1960.446,2667.482 A1255.000,1255.000 40.000 0,1 250.498,1617.347 L200.717,1622.022 A1305.000,1305.000 0.000 0,0 1978.791,2713.995 Z" style="stroke-width:2.0;stroke:rgb(0,0,0);stroke-linecap:round;fill:none;" />
<path d="M248.821,1597.852 A1255.000,1255.000 40.000 0,1 1480.434,245.153 L1479.655,195.159 A1305.000,1305.000 0.000 0,0 198.973,1601.751 Z" style="stroke-width:2.0;stroke:rgb(0,0,0);stroke-linecap:round;fill:rgb(0,149,255);" />
<text x="477.2" y="568.7" font-size="65.0px" font-family="CMUBright-Roman" style="text-anchor:middle;fill:rgb(0,0,0);" transform="rotate(-47.7,477.2,568.7)" >RBBP4</text>
<line x1='196.2' y1='1556.6' x2='188.2' y2='1556.9' style="stroke-width:2.0;stroke:rgb(115,115,115);stroke-linecap:round;fill:none;" />
<line x1='195.0' y1='1506.3' x2='187.0' y2='1506.4' style="stroke-width:2.0;stroke:rgb(115,115,115);stroke-linecap:round;fill:none;" />
<line x1='195.7' y1='1456.1' x2='187.7' y2='1455.8' style="stroke-width:2.0;stroke:rgb(115,115,115);stroke-linecap:round;fill:none;" />
<line x1='198.4' y1='1405.9' x2='190.4' y2='1405.3' style="stroke-width:2.0;stroke:rgb(115,115,115);stroke-linecap:round;fill:none;" />
<line x1='203.0' y1='1355.8' x2='191.1' y2='1354.5' style="stroke-width:3.0;stroke:rgb(82,82,82);stroke-linecap:round;fill:none;" />
<line x1='209.5' y1='1306.0' x2='201.6' y2='1304.8' style="stroke-width:2.0;stroke:rgb(115,115,115);stroke-linecap:round;fill:none;" />
<line x1='217.9' y1='1256.4' x2='210.1' y2='1254.9' style="stroke-width:2.0;stroke:rgb(115,115,115);stroke-linecap:round;fill:none;" />
<line x1='228.3' y1='1207.2' x2='220.5' y2='1205.4' style="stroke-width:2.0;stroke:rgb(115,115,115);stroke-linecap:round;fill:none;" />
<line x1='240.5' y1='1158.5' x2='232.8' y2='1156.4' style="stroke-width:2.0;stroke:rgb(115,115,115);stroke-linecap:round;fill:none;" />
<line x1='254.6' y1='1110.2' x2='240.3' y2='1105.8' style="stroke-width:3.0;stroke:rgb(0,0,0);stroke-linecap:round;fill:none;" />
<text x="233.9" y="1112.7" font-size="23.4px" font-family="CMUBright-Roman" style="text-anchor:end;fill:rgb(0,0,0);" transform="rotate(17.4,233.9,1112.7)" >100</text>
<line x1='270.5' y1='1062.6' x2='263.0' y2='1059.9' style="stroke-width:2.0;stroke:rgb(115,115,115);stroke-linecap:round;fill:none;" />
<line x1='288.3' y1='1015.5' x2='280.8' y2='1012.6' style="stroke-width:2.0;stroke:rgb(115,115,115);stroke-linecap:round;fill:none;" />
<line x1='307.8' y1='969.2' x2='300.5' y2='966.0' style="stroke-width:2.0;stroke:rgb(115,115,115);stroke-linecap:round;fill:none;" />
<line x1='329.1' y1='923.7' x2='322.0' y2='920.2' style="stroke-width:2.0;stroke:rgb(115,115,115);stroke-linecap:round;fill:none;" />
<line x1='352.2' y1='879.0' x2='341.6' y2='873.3' style="stroke-width:3.0;stroke:rgb(82,82,82);stroke-linecap:round;fill:none;" />
<line x1='377.0' y1='835.3' x2='370.1' y2='831.2' style="stroke-width:2.0;stroke:rgb(115,115,115);stroke-linecap:round;fill:none;" />
<line x1='403.4' y1='792.6' x2='396.7' y2='788.2' style="stroke-width:2.0;stroke:rgb(115,115,115);stroke-linecap:round;fill:none;" />
<line x1='431.5' y1='750.8' x2='424.9' y2='746.3' style="stroke-width:2.0;stroke:rgb(115,115,115);stroke-linecap:round;fill:none;" />
<line x1='461.1' y1='710.3' x2='454.7' y2='705.4' style="stroke-width:2.0;stroke:rgb(115,115,115);stroke-linecap:round;fill:none;" />
<line x1='492.3' y1='670.8' x2='480.7' y2='661.3' style="stroke-width:3.0;stroke:rgb(0,0,0);stroke-linecap:round;fill:none;" />
<text x="472.2" y="665.3" font-size="23.4px" font-family="CMUBright-Roman" style="text-anchor:end;fill:rgb(0,0,0);" transform="rotate(39.4,472.2,665.3)" >200</text>
<line x1='525.0' y1='632.6' x2='519.0' y2='627.3' style="stroke-width:2.0;stroke:rgb(115,115,115);stroke-linecap:round;fill:none;" />
<line x1='559.1' y1='595.7' x2='553.3' y2='590.2' style="stroke-width:2.0;stroke:rgb(115,115,115);stroke-linecap:round;fill:none;" />
<line x1='594.6' y1='560.2' x2='589.1' y2='554.4' style="stroke-width:2.0;stroke:rgb(115,115,115);stroke-linecap:round;fill:none;" />
<line x1='631.5' y1='526.0' x2='626.1' y2='520.0' style="stroke-width:2.0;stroke:rgb(115,115,115);stroke-linecap:round;fill:none;" />
<line x1='669.6' y1='493.3' x2='662.0' y2='484.0' style="stroke-width:3.0;stroke:rgb(82,82,82);stroke-linecap:round;fill:none;" />
<line x1='709.0' y1='462.0' x2='704.2' y2='455.7' style="stroke-width:2.0;stroke:rgb(115,115,115);stroke-linecap:round;fill:none;" />
<line x1='749.6' y1='432.3' x2='745.0' y2='425.8' style="stroke-width:2.0;stroke:rgb(115,115,115);stroke-linecap:round;fill:none;" />
<line x1='791.2' y1='404.2' x2='786.9' y2='397.5' style="stroke-width:2.0;stroke:rgb(115,115,115);stroke-linecap:round;fill:none;" />
<line x1='834.0' y1='377.8' x2='829.9' y2='370.9' style="stroke-width:2.0;stroke:rgb(115,115,115);stroke-linecap:round;fill:none;" />
<line x1='877.7' y1='352.9' x2='870.5' y2='339.8' style="stroke-width:3.0;stroke:rgb(0,0,0);stroke-linecap:round;fill:none;" />
<text x="861.2" y="340.3" font-size="23.4px" font-family="CMUBright-Roman" style="text-anchor:end;fill:rgb(0,0,0);" transform="rotate(61.5,861.2,340.3)" >300</text>
<line x1='922.3' y1='329.8' x2='918.8' y2='322.7' style="stroke-width:2.0;stroke:rgb(115,115,115);stroke-linecap:round;fill:none;" />
<line x1='967.8' y1='308.4' x2='964.5' y2='301.1' style="stroke-width:2.0;stroke:rgb(115,115,115);stroke-linecap:round;fill:none;" />
<line x1='1014.1' y1='288.8' x2='1011.1' y2='281.4' style="stroke-width:2.0;stroke:rgb(115,115,115);stroke-linecap:round;fill:none;" />
<line x1='1061.1' y1='271.0' x2='1058.4' y2='263.5' style="stroke-width:2.0;stroke:rgb(115,115,115);stroke-linecap:round;fill:none;" />
<line x1='1108.7' y1='255.0' x2='1105.2' y2='243.6' style="stroke-width:3.0;stroke:rgb(82,82,82);stroke-linecap:round;fill:none;" />
<line x1='1157.0' y1='240.9' x2='1154.9' y2='233.2' style="stroke-width:2.0;stroke:rgb(115,115,115);stroke-linecap:round;fill:none;" />
<line x1='1205.7' y1='228.6' x2='1203.9' y2='220.8' style="stroke-width:2.0;stroke:rgb(115,115,115);stroke-linecap:round;fill:none;" />
<line x1='1254.9' y1='218.2' x2='1253.4' y2='210.4' style="stroke-width:2.0;stroke:rgb(115,115,115);stroke-linecap:round;fill:none;" />
<line x1='1304.5' y1='209.7' x2='1303.3' y2='201.8' style="stroke-width:2.0;stroke:rgb(115,115,115);stroke-linecap:round;fill:none;" />
<line x1='1354.3' y1='203.2' x2='1352.6' y2='188.3' style="stroke-width:3.0;stroke:rgb(0,0,0);stroke-linecap:round;fill:none;" />
<text x="1343.7" y="185.3" font-size="23.4px" font-family="CMUBright-Roman" style="text-anchor:end;fill:rgb(0,0,0);" transform="rotate(83.6,1343.7,185.3)" >400</text>
<line x1='1404.3' y1='198.5' x2='1403.7' y2='190.5' style="stroke-width:2.0;stroke:rgb(115,115,115);stroke-linecap:round;fill:none;" />
<line x1='1454.5' y1='195.8' x2='1454.2' y2='187.8' style="stroke-width:2.0;stroke:rgb(115,115,115);stroke-linecap:round;fill:none;" />
<path d="M248.821,1597.852 A1255.000,1255.000 40.000 0,1 1480.434,245.153 L1479.655,195.159 A1305.000,1305.000 0.000 0,0 198.973,1601.751 Z" style="stroke-width:2.0;stroke:rgb(0,0,0);stroke-linecap:round;fill:none;" />
</g>
<g id="track_0">
<path d="M 1691.5,267.3 L 1691.0,269.2 1690.4,271.1 1689.6,272.8 1688.5,274.6 1687.3,276.2 1685.9,277.7 1684.4,279.2 1682.7,280.5 1680.9,281.8 1679.0,282.9 1676.9,283.9 1674.8,284.7 1672.6,285.4 1670.4,286.0 1668.1,286.4 1665.7,286.7 1663.4,286.8 1661.0,286.8 1658.6,286.7 1656.3,286.4 1654.0,285.9 1651.7,285.3 1649.4,284.6 1647.2,283.7 1645.1,282.7 1643.1,281.6 1641.2,280.3 1639.3,279.0 1637.6,277.5 1636.0,276.0 1634.6,274.3 1633.3,272.6 1632.2,270.8 1631.3,268.9 1630.5,267.0 1629.9,265.1 1629.6,263.2 1629.4,261.2 1629.5,259.3  " style="stroke-opacity: 0.500000; stroke-width: 3.0; stroke: rgb(0,140,255); fill: none"  />
<path d="M 2591.5,2104.0 L 2589.7,2103.2 2587.7,2102.8 2585.7,2102.6 2583.4,2102.7 2581.1,2103.1 2578.7,2103.8 2576.3,2104.7 2573.8,2105.9 2571.2,2107.3 2568.7,2108.9 2566.1,2110.7 2563.6,2112.8 2561.1,2115.0 2558.7,2117.4 2556.3,2120.0 2554.0,2122.7 2551.8,2125.5 2549.6,2128.5 2547.6,2131.5 2545.7,2134.6 2544.0,2137.8 2542.4,2141.1 2540.9,2144.4 2539.6,2147.7 2538.4,2150.9 2537.4,2154.2 2536.6,2157.5 2535.9,2160.7 2535.5,2163.8 2535.2,2166.8 2535.2,2169.7 2535.3,2172.4 2535.6,2175.0 2536.1,2177.5 2536.9,2179.7 2537.8,2181.7 2538.9,2183.5 2540.2,2185.0 2541.8,2186.2  " style="stroke-opacity: 0.500000; stroke-width: 3.0; stroke: rgb(0,140,255); fill: none"  />
<path d="M 1691.5,267.3 L 1691.0,269.2 1690.4,271.1 1689.6,272.8 1688.7,274.6 1687.5,276.2 1686.2,277.8 1684.8,279.2 1683.2,280.6 1681.5,281.8 1679.7,283.0 1677.8,284.0 1675.9,284.8 1673.8,285.6 1671.8,286.2 1669.6,286.6 1667.5,286.9 1665.3,287.1 1663.1,287.1 1660.9,286.9 1658.7,286.6 1656.6,286.2 1654.5,285.6 1652.4,284.9 1650.4,284.1 1648.4,283.1 1646.6,282.0 1644.8,280.7 1643.1,279.4 1641.6,277.9 1640.1,276.4 1638.8,274.8 1637.7,273.0 1636.6,271.3 1635.8,269.4 1635.1,267.5 1634.6,265.6 1634.3,263.7 1634.2,261.7 1634.3,259.8  " style="stroke-opacity: 0.500000; stroke-width: 3.0; stroke: rgb(0,140,255); fill: none"  />
</g>
<g id="track_1">
<path d="M 2609.6,2070.1 L 2601.1,2065.5 2592.8,2060.7 2584.7,2055.7 2577.0,2050.5 2569.6,2045.2 2562.7,2039.7 2556.2,2034.3 2550.1,2028.8 2544.6,2023.3 2539.7,2018.0 2535.3,2012.6 2531.6,2007.5 2528.5,2002.4 2526.0,1997.5 2524.2,1992.9 2523.0,1988.4 2522.5,1984.2 2522.7,1980.3 2523.6,1976.7 2525.2,1973.3 2527.4,1970.3 2530.2,1967.6 2533.8,1965.3 2537.9,1963.3 2542.6,1961.6 2548.0,1960.4 2553.8,1959.5 2560.2,1959.0 2567.1,1958.9 2574.4,1959.2 2582.1,1959.9 2590.2,1960.9 2598.5,1962.4 2607.2,1964.2 2616.0,1966.4 2625.0,1968.9 2634.0,1971.8 2643.0,1975.0 2652.0,1978.6  " style="stroke-opacity: 0.500000; stroke-width: 3.0; stroke: rgb(0,140,255); fill: none"  />
<path d="M 348.9,1019.1 L 358.4,1022.3 368.5,1024.2 379.0,1024.9 390.0,1024.4 401.3,1022.8 412.9,1020.0 424.7,1016.2 436.6,1011.3 448.5,1005.5 460.4,998.7 472.3,991.1 484.0,982.5 495.4,973.2 506.7,963.2 517.6,952.4 528.1,941.0 538.2,929.1 547.9,916.6 557.0,903.6 565.6,890.3 573.6,876.6 580.9,862.6 587.6,848.5 593.6,834.2 598.8,819.8 603.3,805.4 607.0,791.1 609.8,776.9 611.9,762.9 613.1,749.3 613.4,736.0 612.9,723.1 611.5,710.8 609.2,699.2 606.0,688.2 601.9,678.0 596.8,668.7 590.9,660.4 584.1,653.1  " style="stroke-opacity: 0.500000; stroke-width: 3.0; stroke: rgb(0,176,32); fill: none"  />
<path d="M 398.3,914.9 L 407.2,919.0 416.6,922.3 426.4,924.6 436.5,926.0 446.8,926.6 457.3,926.3 468.0,925.2 478.6,923.2 489.3,920.5 499.8,917.0 510.2,912.7 520.3,907.7 530.3,902.0 539.8,895.7 549.1,888.7 557.9,881.2 566.3,873.0 574.1,864.4 581.5,855.3 588.3,845.7 594.4,835.8 600.0,825.5 604.9,814.9 609.2,804.1 612.7,793.1 615.5,781.9 617.6,770.7 619.0,759.4 619.6,748.2 619.4,737.1 618.5,726.2 616.8,715.5 614.4,705.1 611.2,695.1 607.2,685.5 602.5,676.4 597.1,667.9 590.9,660.1 584.1,653.1  " style="stroke-opacity: 0.500000; stroke-width: 3.0; stroke: rgb(0,176,32); fill: none"  />
<path d="M 2704.7,1824.0 L 2695.2,1821.8 2685.6,1820.2 2676.0,1819.3 2666.4,1818.9 2656.9,1819.1 2647.6,1819.9 2638.4,1821.2 2629.6,1823.1 2621.1,1825.6 2612.9,1828.5 2605.2,1831.9 2597.9,1835.8 2591.2,1840.2 2585.0,1844.9 2579.3,1850.1 2574.3,1855.7 2569.9,1861.6 2566.1,1867.8 2563.1,1874.3 2560.6,1881.1 2558.9,1888.1 2557.9,1895.3 2557.6,1902.6 2558.0,1910.1 2559.1,1917.7 2560.9,1925.3 2563.4,1932.9 2566.6,1940.5 2570.4,1948.1 2574.9,1955.5 2579.9,1962.8 2585.6,1969.8 2591.8,1976.6 2598.6,1983.1 2605.8,1989.3 2613.5,1995.1 2621.5,2000.4 2630.0,2005.2 2638.7,2009.5  " style="stroke-opacity: 0.500000; stroke-width: 3.0; stroke: rgb(0,176,32); fill: none"  />
</g>
<g id="track_2">
</g>
<g id="track_3">
<path d="M 2152.9,437.0 L 2139.6,461.5 2128.3,488.0 2119.1,516.3 2111.8,546.4 2106.5,578.1 2103.2,611.3 2101.7,645.7 2102.2,681.2 2104.5,717.7 2108.6,755.0 2114.5,793.0 2122.1,831.6 2131.4,870.5 2142.3,909.7 2154.8,949.0 2168.8,988.2 2184.3,1027.3 2201.2,1066.1 2219.4,1104.4 2238.9,1142.2 2259.6,1179.3 2281.5,1215.5 2304.4,1250.7 2328.3,1284.9 2353.1,1317.8 2378.8,1349.4 2405.1,1379.5 2432.2,1408.0 2459.8,1434.8 2487.8,1459.7 2516.3,1482.7 2545.0,1503.7 2573.9,1522.4 2602.8,1538.9 2631.7,1552.9 2660.5,1564.4 2689.0,1573.3 2717.1,1579.4 2744.7,1582.7  " style="stroke-opacity: 0.500000; stroke-width: 3.0; stroke: rgb(0,140,255); fill: none"  />
<path d="M 2736.0,1668.7 L 2707.5,1663.2 2678.5,1654.3 2648.9,1642.3 2619.0,1627.3 2588.7,1609.4 2558.2,1588.7 2527.6,1565.6 2496.8,1539.9 2466.2,1512.0 2435.6,1482.0 2405.2,1450.0 2375.1,1416.1 2345.4,1380.6 2316.2,1343.5 2287.5,1305.0 2259.4,1265.3 2232.0,1224.5 2205.5,1182.7 2179.8,1140.2 2155.1,1096.9 2131.5,1053.2 2108.9,1009.1 2087.7,964.8 2067.7,920.5 2049.1,876.2 2032.0,832.2 2016.5,788.6 2002.6,745.5 1990.4,703.0 1980.1,661.5 1971.6,620.9 1965.1,581.4 1960.7,543.2 1958.4,506.5 1958.4,471.3 1960.6,437.9 1965.3,406.3 1972.4,376.8 1982.1,349.4  " style="stroke-opacity: 0.500000; stroke-width: 3.0; stroke: rgb(0,140,255); fill: none"  />
<path d="M 2740.1,1635.3 L 2711.7,1630.6 2682.6,1622.6 2652.9,1611.5 2622.8,1597.5 2592.4,1580.6 2561.7,1561.0 2530.9,1538.9 2499.9,1514.4 2469.0,1487.7 2438.2,1458.8 2407.6,1428.0 2377.3,1395.3 2347.3,1360.9 2317.8,1325.0 2288.9,1287.7 2260.6,1249.1 2233.0,1209.4 2206.3,1168.8 2180.4,1127.3 2155.6,1085.1 2131.8,1042.4 2109.2,999.3 2087.8,956.0 2067.7,912.6 2049.1,869.2 2032.0,826.0 2016.4,783.1 2002.5,740.8 1990.3,699.1 1980.0,658.1 1971.5,618.1 1965.1,579.2 1960.7,541.5 1958.4,505.2 1958.4,470.4 1960.7,437.2 1965.3,405.9 1972.4,376.6 1982.1,349.4  " style="stroke-opacity: 0.500000; stroke-width: 3.0; stroke: rgb(0,140,255); fill: none"  />
</g>
<g id="track_4">
<path d="M 2479.9,2271.9 L 2447.3,2244.4 2415.1,2213.6 2383.3,2179.7 2351.8,2142.9 2320.7,2103.4 2289.8,2061.4 2259.3,2017.0 2229.1,1970.5 2199.2,1921.9 2169.6,1871.4 2140.3,1819.2 2111.3,1765.5 2082.6,1710.4 2054.2,1654.1 2026.3,1596.7 1998.8,1538.4 1971.7,1479.3 1945.1,1419.6 1919.1,1359.5 1893.7,1299.0 1868.9,1238.2 1844.8,1177.5 1821.6,1116.8 1799.2,1056.3 1777.8,996.2 1757.3,936.6 1738.1,877.5 1720.0,819.2 1703.2,761.8 1687.9,705.3 1674.1,649.9 1662.0,595.7 1651.7,542.9 1643.2,491.5 1636.8,441.6 1632.5,393.4 1630.6,347.0 1631.1,302.4 1634.3,259.8  " style="stroke-opacity: 0.500000; stroke-width: 3.0; stroke: rgb(0,140,255); fill: none"  />
<path d="M 2479.9,2271.9 L 2447.3,2244.4 2415.0,2213.5 2383.2,2179.6 2351.7,2142.8 2320.5,2103.3 2289.6,2061.3 2259.1,2016.9 2228.8,1970.3 2198.8,1921.7 2169.1,1871.2 2139.7,1819.0 2110.6,1765.3 2081.9,1710.2 2053.4,1653.9 2025.4,1596.5 1997.8,1538.1 1970.6,1479.1 1943.9,1419.4 1917.7,1359.2 1892.1,1298.6 1867.2,1237.9 1843.0,1177.2 1819.6,1116.5 1797.0,1056.0 1775.4,995.9 1754.9,936.3 1735.4,877.2 1717.2,818.9 1700.2,761.5 1684.7,705.0 1670.8,649.6 1658.5,595.4 1647.9,542.6 1639.3,491.1 1632.7,441.2 1628.3,393.0 1626.2,346.5 1626.5,301.9 1629.5,259.3  " style="stroke-opacity: 0.500000; stroke-width: 3.0; stroke: rgb(0,140,255); fill: none"  />
</g>
<g id="track_5">
<path d="M 2557.3,2162.0 L 2506.9,2130.0 2456.4,2097.2 2406.0,2063.5 2355.8,2029.0 2305.6,1993.6 2255.7,1957.4 2206.1,1920.3 2156.8,1882.4 2107.9,1843.6 2059.4,1804.0 2011.4,1763.5 1963.8,1722.1 1916.8,1680.0 1870.4,1637.0 1824.6,1593.3 1779.5,1548.7 1735.0,1503.4 1691.3,1457.4 1648.2,1410.6 1606.0,1363.1 1564.5,1315.0 1523.8,1266.2 1484.0,1216.8 1445.0,1166.7 1406.8,1116.2 1369.5,1065.1 1333.1,1013.5 1297.6,961.5 1263.0,909.1 1229.2,856.4 1196.3,803.3 1164.4,749.9 1133.3,696.3 1103.1,642.6 1073.8,588.7 1045.3,534.7 1017.7,480.8 991.0,426.9 965.1,373.0  " style="stroke-opacity: 0.500000; stroke-width: 3.0; stroke: rgb(0,140,255); fill: none"  />
<path d="M 2655.7,1969.7 L 2596.9,1945.8 2537.9,1922.0 2478.9,1898.3 2419.8,1874.6 2360.6,1851.0 2301.3,1827.4 2241.9,1803.9 2182.4,1780.6 2122.8,1757.3 2063.2,1734.0 2003.5,1710.9 1943.7,1687.9 1883.8,1665.0 1823.9,1642.1 1763.9,1619.4 1703.8,1596.8 1643.7,1574.3 1583.5,1551.9 1523.3,1529.6 1463.0,1507.5 1402.7,1485.4 1342.4,1463.5 1282.0,1441.7 1221.6,1420.0 1161.2,1398.5 1100.8,1377.0 1040.3,1355.7 979.8,1334.5 919.4,1313.4 858.9,1292.5 798.4,1271.6 737.9,1250.9 677.5,1230.3 617.1,1209.8 556.7,1189.5 496.3,1169.2 435.9,1149.1 375.6,1129.0 315.4,1109.1  " style="stroke-opacity: 0.500000; stroke-width: 3.0; stroke: rgb(0,140,255); fill: none"  />
<path d="M 2101.3,2593.0 L 2073.8,2544.1 2045.0,2495.4 2015.0,2446.9 1983.7,2398.8 1951.0,2351.2 1917.1,2304.3 1881.9,2258.0 1845.4,2212.6 1807.6,2168.1 1768.6,2124.6 1728.3,2082.2 1686.7,2041.0 1644.0,2001.1 1600.0,1962.5 1554.9,1925.3 1508.6,1889.5 1461.2,1855.2 1412.8,1822.5 1363.3,1791.4 1312.9,1761.8 1261.5,1734.0 1209.3,1707.8 1156.2,1683.2 1102.3,1660.4 1047.8,1639.3 992.6,1619.8 936.8,1602.1 880.6,1586.0 823.9,1571.6 766.9,1558.9 709.6,1547.7 652.1,1538.1 594.5,1530.1 536.9,1523.5 479.5,1518.4 422.2,1514.6 365.2,1512.2 308.6,1510.9 252.6,1510.9  " style="stroke-opacity: 0.500000; stroke-width: 3.0; stroke: rgb(0,176,32); fill: none"  />
<path d="M 2479.9,2271.9 L 2431.2,2233.7 2382.0,2195.6 2332.4,2157.7 2282.3,2119.9 2231.9,2082.3 2181.0,2044.8 2129.8,2007.7 2078.1,1970.7 2026.1,1934.0 1973.7,1897.7 1921.0,1861.6 1867.8,1825.8 1814.4,1790.4 1760.6,1755.4 1706.4,1720.7 1652.0,1686.4 1597.3,1652.4 1542.2,1618.9 1486.9,1585.8 1431.4,1553.2 1375.5,1520.9 1319.5,1489.1 1263.3,1457.8 1206.8,1426.9 1150.2,1396.5 1093.4,1366.5 1036.4,1337.0 979.3,1308.0 922.2,1279.4 864.9,1251.3 807.5,1223.7 750.2,1196.6 692.7,1169.9 635.3,1143.6 577.9,1117.8 520.6,1092.5 463.3,1067.6 406.0,1043.1 348.9,1019.1  " style="stroke-opacity: 0.500000; stroke-width: 3.0; stroke: rgb(255,150,3); fill: none"  />
<path d="M 2479.9,2271.9 L 2432.6,2234.3 2385.2,2195.9 2338.0,2156.8 2290.9,2117.0 2244.0,2076.5 2197.3,2035.3 2150.9,1993.4 2104.8,1950.9 2059.0,1907.6 2013.6,1863.6 1968.7,1819.0 1924.2,1773.7 1880.1,1727.8 1836.6,1681.2 1793.6,1634.0 1751.2,1586.2 1709.4,1537.8 1668.1,1488.8 1627.5,1439.2 1587.6,1389.2 1548.3,1338.6 1509.7,1287.5 1471.8,1235.9 1434.6,1183.9 1398.1,1131.5 1362.4,1078.8 1327.4,1025.6 1293.1,972.2 1259.6,918.4 1226.8,864.4 1194.8,810.2 1163.5,755.7 1133.0,701.2 1103.2,646.5 1074.1,591.8 1045.8,537.0 1018.2,482.3 991.3,427.6 965.1,373.0  " style="stroke-opacity: 0.500000; stroke-width: 3.0; stroke: rgb(0,140,255); fill: none"  />
<path d="M 2479.9,2271.9 L 2433.4,2235.8 2385.9,2199.9 2337.6,2164.5 2288.5,2129.6 2238.5,2095.2 2187.6,2061.4 2136.0,2028.3 2083.7,1995.9 2030.5,1964.3 1976.7,1933.6 1922.2,1903.7 1867.0,1874.7 1811.1,1846.8 1754.6,1819.7 1697.6,1793.8 1640.0,1768.9 1581.9,1745.0 1523.3,1722.3 1464.2,1700.7 1404.8,1680.3 1344.9,1661.0 1284.7,1642.9 1224.3,1625.9 1163.5,1610.1 1102.6,1595.5 1041.4,1582.1 980.2,1569.8 918.8,1558.7 857.5,1548.7 796.1,1539.9 734.8,1532.1 673.6,1525.4 612.5,1519.8 551.7,1515.2 491.1,1511.6 430.8,1508.9 371.0,1507.1 311.5,1506.2 252.5,1506.1  " style="stroke-opacity: 0.500000; stroke-width: 3.0; stroke: rgb(0,140,255); fill: none"  />
<path d="M 2479.9,2271.9 L 2433.4,2235.8 2386.0,2200.0 2337.7,2164.6 2288.5,2129.7 2238.5,2095.3 2187.7,2061.6 2136.1,2028.5 2083.8,1996.2 2030.6,1964.6 1976.8,1933.9 1922.2,1904.1 1867.0,1875.2 1811.2,1847.3 1754.7,1820.4 1697.6,1794.5 1640.0,1769.7 1581.9,1746.0 1523.3,1723.4 1464.2,1701.9 1404.7,1681.6 1344.9,1662.4 1284.7,1644.4 1224.2,1627.6 1163.5,1612.0 1102.5,1597.5 1041.4,1584.3 980.1,1572.2 918.7,1561.2 857.4,1551.4 796.0,1542.8 734.7,1535.2 673.5,1528.7 612.4,1523.3 551.6,1518.9 491.0,1515.5 430.8,1513.0 370.9,1511.4 311.5,1510.7 252.6,1510.9  " style="stroke-opacity: 0.500000; stroke-width: 3.0; stroke: rgb(0,140,255); fill: none"  />
<path d="M 2620.4,2048.6 L 2563.8,2021.0 2507.0,1993.5 2450.0,1966.1 2392.8,1938.8 2335.4,1911.6 2277.8,1884.6 2220.1,1857.7 2162.1,1831.0 2104.0,1804.4 2045.7,1778.0 1987.2,1751.8 1928.6,1725.8 1869.9,1700.0 1811.0,1674.4 1751.9,1648.9 1692.8,1623.7 1633.5,1598.8 1574.1,1574.0 1514.6,1549.5 1455.0,1525.2 1395.3,1501.1 1335.5,1477.3 1275.6,1453.7 1215.7,1430.4 1155.7,1407.3 1095.7,1384.4 1035.7,1361.8 975.6,1339.5 915.4,1317.3 855.3,1295.5 795.2,1273.8 735.1,1252.4 675.0,1231.3 614.9,1210.3 554.9,1189.7 494.9,1169.2 435.0,1148.9 375.1,1128.9 315.4,1109.1  " style="stroke-opacity: 0.500000; stroke-width: 3.0; stroke: rgb(0,140,255); fill: none"  />
<path d="M 965.1,373.0 L 991.1,427.0 1017.8,481.1 1045.4,535.2 1073.9,589.3 1103.1,643.4 1133.2,697.4 1164.2,751.2 1196.0,804.8 1228.7,858.1 1262.3,911.2 1296.7,963.9 1332.0,1016.2 1368.1,1068.1 1405.1,1119.6 1442.9,1170.5 1481.5,1221.0 1521.0,1270.9 1561.2,1320.2 1602.3,1368.9 1644.0,1416.9 1686.6,1464.3 1729.8,1511.0 1773.7,1557.0 1818.3,1602.3 1863.6,1646.8 1909.4,1690.6 1955.8,1733.6 2002.7,1775.8 2050.1,1817.2 2098.0,1857.8 2146.3,1897.6 2194.9,1936.5 2243.9,1974.7 2293.2,2012.0 2342.7,2048.5 2392.3,2084.1 2442.1,2119.0 2491.9,2153.0 2541.8,2186.2  " style="stroke-opacity: 0.500000; stroke-width: 3.0; stroke: rgb(0,140,255); fill: none"  />
<path d="M 253.9,1558.9 L 316.0,1556.1 378.3,1553.7 440.8,1551.5 503.6,1549.7 566.6,1548.3 629.8,1547.2 693.2,1546.6 756.7,1546.3 820.4,1546.5 884.2,1547.0 948.2,1548.0 1012.2,1549.4 1076.4,1551.3 1140.6,1553.6 1204.8,1556.4 1269.1,1559.6 1333.4,1563.3 1397.7,1567.4 1462.0,1572.1 1526.2,1577.1 1590.5,1582.7 1654.6,1588.7 1718.7,1595.1 1782.7,1602.1 1846.6,1609.4 1910.3,1617.2 1974.0,1625.4 2037.4,1634.1 2100.7,1643.2 2163.9,1652.6 2226.8,1662.5 2289.5,1672.8 2352.0,1683.4 2414.2,1694.3 2476.2,1705.7 2538.0,1717.3 2599.4,1729.2 2660.5,1741.4 2721.4,1753.9  " style="stroke-opacity: 0.500000; stroke-width: 3.0; stroke: rgb(0,140,255); fill: none"  />
<path d="M 253.7,1554.1 L 315.8,1551.6 378.1,1549.3 440.7,1547.4 503.5,1545.9 566.5,1544.6 629.7,1543.8 693.1,1543.3 756.7,1543.3 820.4,1543.6 884.2,1544.4 948.2,1545.5 1012.2,1547.1 1076.3,1549.2 1140.5,1551.7 1204.8,1554.6 1269.1,1558.0 1333.4,1561.8 1397.6,1566.1 1461.9,1570.8 1526.2,1576.0 1590.4,1581.7 1654.5,1587.8 1718.6,1594.4 1782.6,1601.4 1846.5,1608.8 1910.2,1616.7 1973.8,1625.0 2037.3,1633.7 2100.6,1642.9 2163.7,1652.4 2226.7,1662.3 2289.4,1672.6 2351.9,1683.3 2414.1,1694.3 2476.1,1705.6 2537.9,1717.2 2599.3,1729.2 2660.5,1741.4 2721.4,1753.9  " style="stroke-opacity: 0.500000; stroke-width: 3.0; stroke: rgb(0,140,255); fill: none"  />
<path d="M 255.0,1578.1 L 316.8,1574.4 379.0,1571.0 441.4,1567.9 504.1,1565.3 567.0,1563.0 630.1,1561.1 693.4,1559.6 756.9,1558.5 820.6,1557.8 884.4,1557.6 948.3,1557.9 1012.3,1558.6 1076.5,1559.8 1140.7,1561.4 1204.9,1563.5 1269.2,1566.2 1333.6,1569.3 1397.9,1572.9 1462.2,1577.0 1526.5,1581.6 1590.7,1586.6 1654.9,1592.2 1719.1,1598.2 1783.1,1604.8 1847.0,1611.8 1910.8,1619.2 1974.4,1627.2 2037.9,1635.5 2101.2,1644.4 2164.4,1653.6 2227.3,1663.3 2290.0,1673.4 2352.4,1683.8 2414.6,1694.7 2476.6,1705.9 2538.2,1717.4 2599.6,1729.3 2660.6,1741.5 2721.4,1753.9  " style="stroke-opacity: 0.500000; stroke-width: 3.0; stroke: rgb(0,140,255); fill: none"  />
<path d="M 255.0,1578.1 L 310.6,1575.2 366.8,1573.4 423.4,1572.9 480.4,1573.7 537.6,1576.0 595.0,1579.7 652.4,1584.9 709.7,1591.7 766.9,1600.2 823.8,1610.3 880.5,1622.1 936.7,1635.7 992.5,1651.0 1047.7,1668.1 1102.2,1687.0 1156.1,1707.7 1209.2,1730.1 1261.5,1754.4 1313.0,1780.4 1363.5,1808.2 1413.0,1837.7 1461.5,1868.8 1509.0,1901.6 1555.3,1936.0 1600.5,1972.0 1644.5,2009.4 1687.3,2048.3 1728.9,2088.5 1769.3,2129.9 1808.3,2172.6 1846.1,2216.4 1882.6,2261.1 1917.8,2306.8 1951.6,2353.2 1984.2,2400.3 2015.4,2448.0 2045.3,2496.1 2074.0,2544.5 2101.3,2593.0  " style="stroke-opacity: 0.500000; stroke-width: 3.0; stroke: rgb(0,140,255); fill: none"  />
<path d="M 253.2,1539.7 L 315.3,1537.9 377.8,1536.3 440.4,1535.1 503.3,1534.2 566.4,1533.7 629.7,1533.5 693.1,1533.6 756.7,1534.2 820.4,1535.1 884.3,1536.4 948.2,1538.1 1012.3,1540.3 1076.4,1542.8 1140.6,1545.8 1204.8,1549.2 1269.0,1553.1 1333.3,1557.3 1397.6,1562.0 1461.8,1567.2 1526.0,1572.7 1590.2,1578.7 1654.3,1585.2 1718.4,1592.1 1782.3,1599.3 1846.2,1607.1 1909.9,1615.2 1973.5,1623.7 2037.0,1632.6 2100.3,1642.0 2163.4,1651.6 2226.3,1661.7 2289.0,1672.1 2351.6,1682.9 2413.8,1694.0 2475.9,1705.4 2537.7,1717.1 2599.2,1729.1 2660.4,1741.4 2721.4,1753.9  " style="stroke-opacity: 0.500000; stroke-width: 3.0; stroke: rgb(0,140,255); fill: none"  />
<path d="M 253.0,1534.9 L 315.2,1533.3 377.7,1532.0 440.4,1531.0 503.3,1530.3 566.4,1530.0 629.7,1530.0 693.1,1530.4 756.7,1531.1 820.4,1532.2 884.3,1533.8 948.2,1535.7 1012.3,1538.0 1076.4,1540.7 1140.6,1543.9 1204.8,1547.4 1269.0,1551.4 1333.3,1555.8 1397.6,1560.7 1461.8,1565.9 1526.0,1571.6 1590.2,1577.8 1654.3,1584.3 1718.3,1591.3 1782.2,1598.7 1846.1,1606.5 1909.8,1614.7 1973.4,1623.3 2036.8,1632.3 2100.1,1641.7 2163.3,1651.4 2226.2,1661.5 2288.9,1672.0 2351.4,1682.8 2413.7,1693.9 2475.8,1705.4 2537.6,1717.1 2599.1,1729.1 2660.4,1741.4 2721.4,1753.9  " style="stroke-opacity: 0.500000; stroke-width: 3.0; stroke: rgb(0,140,255); fill: none"  />
<path d="M 315.4,1109.1 L 370.7,1127.8 426.2,1147.5 481.8,1168.3 537.5,1190.1 593.1,1213.0 648.7,1237.0 704.0,1262.1 759.1,1288.4 813.9,1315.8 868.3,1344.3 922.3,1374.0 975.8,1404.9 1028.8,1436.9 1081.2,1470.1 1132.9,1504.4 1184.0,1539.9 1234.3,1576.4 1283.8,1614.1 1332.6,1652.8 1380.4,1692.6 1427.5,1733.4 1473.6,1775.2 1518.7,1818.0 1562.9,1861.7 1606.1,1906.2 1648.3,1951.7 1689.5,1997.9 1729.7,2044.8 1768.8,2092.4 1806.8,2140.7 1843.8,2189.6 1879.7,2238.9 1914.5,2288.7 1948.3,2338.9 1981.0,2389.4 2012.6,2440.2 2043.2,2491.1 2072.8,2542.0 2101.3,2593.0  " style="stroke-opacity: 0.500000; stroke-width: 3.0; stroke: rgb(0,140,255); fill: none"  />
<path d="M 315.4,1109.1 L 375.0,1128.9 434.7,1148.9 494.5,1169.2 554.3,1189.7 614.3,1210.5 674.2,1231.5 734.2,1252.8 794.2,1274.4 854.3,1296.3 914.3,1318.4 974.3,1340.8 1034.3,1363.5 1094.2,1386.5 1154.1,1409.7 1213.9,1433.2 1273.7,1457.0 1333.4,1481.1 1393.0,1505.4 1452.5,1530.0 1511.9,1554.9 1571.2,1580.1 1630.4,1605.5 1689.4,1631.1 1748.3,1657.0 1807.0,1683.2 1865.6,1709.5 1924.0,1736.2 1982.2,1763.0 2040.3,1790.0 2098.2,1817.3 2155.8,1844.7 2213.3,1872.4 2270.6,1900.2 2327.7,1928.2 2384.5,1956.3 2441.1,1984.6 2497.5,2013.0 2553.7,2041.5 2609.6,2070.1  " style="stroke-opacity: 0.500000; stroke-width: 3.0; stroke: rgb(0,140,255); fill: none"  />
<path d="M 1135.2,307.1 L 1152.6,362.4 1171.0,418.0 1190.6,473.7 1211.2,529.4 1233.0,585.1 1256.0,640.7 1280.1,696.1 1305.4,751.3 1331.9,806.1 1359.7,860.5 1388.7,914.4 1418.9,967.8 1450.3,1020.7 1482.9,1072.9 1516.7,1124.4 1551.8,1175.2 1588.0,1225.2 1625.4,1274.3 1663.9,1322.6 1703.6,1370.0 1744.3,1416.5 1786.1,1462.0 1828.9,1506.5 1872.7,1550.0 1917.4,1592.4 1963.0,1633.7 2009.4,1674.0 2056.7,1713.2 2104.6,1751.2 2153.3,1788.2 2202.5,1824.0 2252.3,1858.7 2302.5,1892.2 2353.2,1924.6 2404.2,1955.9 2455.4,1986.1 2506.7,2015.2 2558.2,2043.2 2609.6,2070.1  " style="stroke-opacity: 0.500000; stroke-width: 3.0; stroke: rgb(0,140,255); fill: none"  />
</g>
<defs>
<pattern id="vline-sparse" width="10" height="10" patternTransform="rotate(0 0 0)" patternUnits="userSpaceOnUse"><line x1="0" y1="0" x2="0" y2="10" style="stroke:black;stroke-width:2" /></pattern>
<pattern id="vline" width="10" height="10" patternTransform="rotate(0 0 0)" patternUnits="userSpaceOnUse"><line x1="0" y1="0" x2="0" y2="10" style="stroke:black;stroke-width:5" /></pattern>
<pattern id="checker" width="10" height="10" patternTransform="rotate(45 0 0)" patternUnits="userSpaceOnUse"><line x1="0" y1="0" x2="10" y2="0" style="stroke:black;stroke-width:5" /><line x1="0" y1="0" x2="0" y2="10" style="stroke:black;stroke-width:4" /></pattern>
<pattern id="hline-sparse" width="10" height="10" patternTransform="rotate(0 0 0)" patternUnits="userSpaceOnUse"><line x1="0" y1="0" x2="10" y2="0" style="stroke:black;stroke-width:2" /></pattern>
<pattern id="hline" width="10" height="10" patternTransform="rotate(0 0 0)" patternUnits="userSpaceOnUse"><line x1="0" y1="0" x2="10" y2="0" style="stroke:black;stroke-width:5" /></pattern>
<pattern id="checker" width="10" height="10" patternTransform="rotate(45 0 0)" patternUnits="userSpaceOnUse"><line x1="0" y1="0" x2="10" y2="0" style="stroke:black;stroke-width:2" /><line x1="0" y1="0" x2="0" y2="10" style="stroke:black;stroke-width:2" /></pattern>
</defs>
</svg>
